<?xml version="1.0" encoding="UTF-8"?><svg xmlns="http://www.w3.org/2000/svg" xmlns:xlink="http://www.w3.org/1999/xlink" version="1.2" width="100%" viewBox="0 0 1024 1024" xml:space="preserve" baseProfile="tiny-ps"><title>yalleguelogoemail</title><path fill="#FFFFFF" stroke="none" d=" M550.000000,1025.000000   C366.666656,1025.000000 183.833328,1025.000000 1.000000,1025.000000   C1.000000,683.666687 1.000000,342.333344 1.000000,1.000000   C342.333344,1.000000 683.666687,1.000000 1025.000000,1.000000   C1025.000000,342.333344 1025.000000,683.666687 1025.000000,1025.000000   C866.833313,1025.000000 708.666687,1025.000000 550.000000,1025.000000  M798.036682,771.947937   C798.036682,771.947937 798.133423,771.922180 798.050049,771.176575   C797.422729,768.819458 796.795410,766.462280 796.075745,764.077393   C796.075745,764.077393 796.103760,764.169678 797.021729,764.063904   C817.320374,764.063904 837.619080,764.063904 858.138855,764.063904   C859.330139,751.388306 858.649841,739.473572 851.741882,728.320618   C851.741882,728.320618 851.503296,728.112854 851.182678,727.613586   C850.472534,726.692932 849.762390,725.772339 848.982056,724.398132   C848.846436,724.079651 848.605652,723.915710 847.996826,723.291016   C846.363159,721.811096 844.729492,720.331116 843.051331,718.952820   C843.051331,718.952820 843.147522,718.897583 842.824951,718.294800   C826.264160,706.970215 804.395447,707.224304 788.311768,719.109741   C771.834839,732.000671 767.859558,749.350525 772.226318,768.627625   C776.032227,785.428833 786.958679,796.813843 803.922180,800.945740   C823.957703,805.825928 841.663086,801.431885 855.907288,785.419373   C851.374451,781.241577 847.051270,777.105713 842.495239,773.244751   C841.909607,772.748474 840.114563,773.679443 838.343445,774.169922   C837.848328,774.747437 837.353210,775.324951 836.955261,775.958740   C836.955261,775.958740 836.906189,775.857849 836.247925,776.108521   C826.071045,783.373291 815.382812,784.646973 804.076904,778.939331   C804.076904,778.939331 804.162720,778.923279 803.944397,778.432739   C803.635010,778.271851 803.325684,778.110901 802.774048,777.392700   C801.889282,776.581238 801.004517,775.769775 799.927734,774.355713   C799.315552,773.525146 798.703430,772.694580 798.036682,771.947937  M185.119797,735.862976   C186.128403,733.941162 187.137024,732.019409 188.036667,730.044739   C188.036667,730.044739 188.106613,730.143677 188.700897,729.793945   C191.190231,725.235413 193.679565,720.676880 196.050858,716.051880   C196.050858,716.051880 196.127441,716.163574 196.709244,715.838318   C197.737625,713.891785 198.766006,711.945251 200.068695,709.669617   C200.068695,709.669617 200.090912,709.241821 200.657394,708.865967   C201.470642,707.263428 202.283875,705.660828 203.007858,704.029724   C203.007858,704.029724 203.067947,704.101685 203.645203,703.732910   C206.124908,699.171570 208.604630,694.610229 211.001419,690.028137   C211.001419,690.028137 211.059494,690.090820 211.618393,689.692688   C214.488205,684.637390 217.358017,679.582031 220.507385,674.034302   C211.386597,674.034302 203.231628,673.940491 195.083191,674.129272   C193.767044,674.159790 191.898804,675.115479 191.275055,676.208130   C187.584106,682.674438 184.185196,689.307434 180.253296,696.098389   C180.026917,696.366455 179.954529,696.671143 179.556229,697.494873   C178.300888,699.947754 177.045547,702.400635 175.914536,704.923706   C175.914536,704.923706 175.838715,704.802734 175.252762,705.169312   C173.663513,708.185242 172.074249,711.201233 170.330582,714.398010   C170.330582,714.398010 170.241516,714.618469 169.888245,715.145447   C168.252258,718.112183 166.616272,721.078918 164.801956,724.369019   C162.953568,721.165527 161.354889,718.394836 159.671722,715.391174   C159.671722,715.391174 159.507721,715.205383 159.211960,714.625244   C157.748810,711.959167 156.285660,709.293152 154.744858,706.317871   C154.744858,706.317871 154.515625,706.096375 154.226669,705.519531   C152.228577,701.986206 150.230469,698.452881 148.107742,694.266174   C147.664841,693.511292 147.221954,692.756348 146.641953,691.330872   C144.016678,686.546204 141.487854,681.704224 138.700958,677.015564   C137.967789,675.782166 136.456909,674.206970 135.267578,674.176514   C126.084381,673.941101 116.892448,674.046753 106.879860,674.046753   C113.180153,684.581909 119.000938,694.315186 125.378777,703.840088   C125.339737,703.645691 125.300705,703.451355 125.301109,703.344910   C125.301109,703.344910 125.278496,703.438538 124.837898,704.139648   C124.955772,704.389160 125.073647,704.638733 125.259064,705.488892   C129.786438,713.058044 134.313812,720.627258 138.917282,728.076050   C138.917282,728.076050 138.793106,728.145752 138.935059,728.846924   C142.915848,735.653137 146.896637,742.459351 150.878204,749.660278   C150.878204,749.660278 151.078232,750.000488 150.978012,750.933044   C150.978012,767.192261 150.978012,783.451416 150.978012,799.728394   C160.215057,799.728394 168.937836,799.728394 177.917038,799.728394   C177.917038,783.799500 177.786560,768.169373 178.033524,752.545227   C178.079712,749.623169 179.637787,746.725098 180.679718,743.627991   C180.679718,743.627991 180.770279,743.382935 181.131897,742.876709   C182.257660,740.849976 183.383423,738.823242 184.679230,736.611755   C184.679230,736.611755 184.769669,736.377502 185.119797,735.862976  M734.220642,796.511292   C734.304382,796.655518 734.388184,796.799683 734.353149,797.672058   C734.448242,798.145508 734.543335,798.619019 734.407471,799.378296   C734.498779,799.677185 734.692932,799.777649 735.882935,799.986816   C743.473145,799.986816 751.063293,799.986816 758.983887,799.986816   C758.983887,771.280579 758.996155,743.067322 758.901245,714.854553   C758.899170,714.251831 757.663818,713.653320 756.213623,712.868958   C755.139099,712.928406 754.064575,712.987854 752.254333,712.879089   C751.505737,712.930298 750.757080,712.981567 749.188843,712.834473   C747.791809,712.893433 746.394775,712.952393 744.100891,712.834167   C740.770081,713.221069 737.439270,713.607971 733.950928,714.886169   C734.000122,717.597534 734.049316,720.308960 733.950500,723.861694   C733.997437,725.566406 734.044373,727.271118 733.918030,729.856079   C733.975647,732.243774 734.033203,734.631470 733.939819,737.879272   C733.987427,739.912170 734.034973,741.945068 733.904419,744.901123   C733.943787,750.268982 733.983154,755.636902 733.765259,761.716003   C733.546509,763.474670 733.327820,765.233398 732.802673,767.647400   C730.513611,774.093262 726.765930,778.998718 719.471008,780.013977   C712.583191,780.972412 706.658813,779.546997 702.868896,772.211731   C702.256409,768.825012 701.153625,765.443848 701.114868,762.050537   C700.929077,745.810059 701.031494,729.566284 701.031494,713.189697   C692.223755,713.189697 683.858887,713.189697 675.340942,713.189697   C675.340942,732.713135 675.104614,751.964233 675.448059,771.205078   C675.602783,779.873779 677.960449,788.083801 685.078552,794.601074   C685.264709,794.893127 685.530945,795.041504 686.189819,795.664185   C693.858093,801.583679 702.352173,804.135864 712.668518,802.093750   C713.112183,802.024170 713.555786,801.954529 714.781250,801.978027   C722.486816,801.108154 727.966675,795.943848 734.040527,792.795166   C734.134888,793.870667 734.229309,794.946106 734.220642,796.511292  M369.056335,776.025757   C369.010010,744.351624 368.963684,712.677490 369.082977,680.212708   C369.027893,679.140869 368.972778,678.069031 369.104797,676.118286   C368.478241,675.417480 367.862213,674.117981 367.223572,674.106750   C359.282959,673.967651 351.339081,674.015808 343.266907,674.015808   C343.266907,716.229553 343.266907,757.938965 343.266907,799.783752   C368.416534,799.783752 393.310791,799.783752 418.253784,799.783752   C418.253784,792.138489 418.253784,784.732239 418.253784,776.912231   C401.662506,776.912231 385.356445,776.912231 368.997742,776.979126   C368.997742,776.979126 369.079956,776.957153 369.056335,776.025757  M902.060364,736.256958   C902.028076,735.501404 901.995728,734.745850 902.185974,733.210815   C903.169128,713.543152 904.152283,693.875488 905.128540,674.344971   C895.903442,674.344971 887.506348,674.344971 878.686890,674.344971   C879.484253,686.799927 880.258606,698.894226 880.905518,711.657043   C880.966553,712.104553 881.027588,712.552063 880.952393,713.927795   C881.512390,729.189392 882.072449,744.450989 882.631836,759.694946   C889.114136,759.694946 895.162781,759.694946 901.904724,759.694946   C901.904724,751.911316 901.904724,744.455566 902.060364,736.256958  M611.709900,164.780243   C568.013428,136.311356 520.501709,124.387199 468.855896,134.001755   C407.983704,145.333939 362.983826,179.168564 334.360962,233.965378   C313.691467,273.535797 308.827332,315.687897 317.978363,359.282990   C322.930969,382.876923 333.689758,404.310089 345.544006,425.030792   C362.101654,453.972900 382.781433,480.093842 403.595154,506.023743   C434.844330,544.954285 466.464783,583.586853 497.922211,622.350281   C501.254578,626.456604 502.308380,626.359985 505.796082,622.033508   C527.205322,595.475891 548.708557,568.993835 570.070312,542.398254   C589.971802,517.620728 610.101624,493.013733 629.456177,467.813416   C648.089111,443.552551 664.693054,417.975952 675.735535,389.142242   C685.124023,364.627380 689.661316,339.328125 688.968933,313.117157   C688.832275,307.943268 687.996338,302.664764 682.801270,299.740753   C677.487488,296.749939 672.635681,298.253174 667.944519,301.537506   C660.460022,306.777344 652.350647,311.256989 645.433411,317.147644   C630.256897,330.072021 615.661682,343.679016 600.928833,356.917664   C573.421753,334.753967 545.064453,311.900177 516.700806,289.054291   C508.023590,282.065063 500.803345,282.166687 492.121460,289.283417   C486.845764,293.608032 481.751709,298.215973 476.128479,302.038208   C470.011017,306.196350 463.666382,310.284943 456.886902,313.132904   C449.528961,316.223846 438.830292,312.986206 435.629181,304.161865   C453.099670,289.845337 470.801056,274.991791 488.911835,260.655396   C497.106384,254.168594 506.999756,252.557648 517.273010,254.382721   C530.333618,256.702972 543.305603,259.567078 556.410950,261.576569   C568.838684,263.482147 581.435242,263.937042 592.941345,257.625519   C611.845337,247.255936 628.122070,233.701889 640.599304,215.960388   C642.949768,212.618378 644.649536,208.741699 646.190186,204.926239   C648.255554,199.811325 647.285278,195.072968 643.008545,191.372101   C632.830933,182.564941 622.587341,173.834106 611.709900,164.780243  M631.115967,807.437195   C626.987732,814.529602 620.693848,817.638062 612.616882,818.075867   C600.964844,818.707275 590.646484,815.665649 581.683105,807.467468   C577.584534,813.449280 573.687012,819.137634 569.670227,825.000061   C586.069092,837.433533 604.070312,841.667053 623.863831,838.063904   C640.824280,834.976501 652.673767,825.570374 657.401367,808.677368   C659.081238,802.674683 659.792114,796.232178 659.864014,789.978027   C660.145691,765.489502 659.998474,740.996033 659.995117,716.504395   C659.994995,715.395081 659.844482,714.285828 659.759338,713.111511   C651.682190,713.111511 643.921509,713.111511 636.195984,713.111511   C635.736023,715.717102 635.316223,718.094910 635.070251,719.488342   C630.086731,716.798767 625.368835,713.067200 620.029419,711.605225   C606.876221,708.003784 594.136414,710.067993 583.168945,718.446289   C566.966614,730.823608 562.829590,747.868164 566.691833,766.997131   C570.026917,783.515137 579.998352,794.869507 596.742188,798.553040   C610.554565,801.591675 623.832947,799.859619 634.665649,789.114807   C635.052979,789.337219 635.440247,789.559631 635.827515,789.782043   C634.411316,795.467468 632.995056,801.152954 631.115967,807.437195  M277.633881,719.862183   C273.647217,717.550781 269.901459,714.546692 265.627838,713.060303   C253.680969,708.905029 241.520828,709.110291 229.428238,712.901123   C220.993942,715.545227 214.184174,720.388611 208.597961,727.401611   C214.004272,731.822693 218.984589,735.895508 223.956024,739.960999   C231.182663,731.586243 241.828339,728.397705 251.538635,731.529968   C258.131378,733.656616 261.163208,737.904175 261.738617,746.265015   C260.085052,746.265015 258.453766,746.158386 256.840118,746.282104   C245.484543,747.152527 233.894485,745.909912 223.018738,750.833862   C210.323807,756.581482 205.203339,764.647705 205.947266,778.702148   C206.465851,788.499756 214.498123,797.830261 225.874634,801.017456   C239.552170,804.849243 252.128494,802.935425 262.604126,792.165894   C263.155945,794.954529 263.629486,797.347717 264.081848,799.633850   C272.133209,799.633850 280.018707,799.633850 287.983337,799.633850   C287.983337,781.914307 288.224915,764.588501 287.890106,747.273926   C287.698273,737.353821 285.727936,727.760254 277.633881,719.862183  M532.500000,764.067017   C540.596497,764.067017 548.692993,764.067017 556.997986,764.067017   C556.997986,758.065857 557.568542,752.529846 556.891357,747.150940   C554.831055,730.785706 547.059265,718.205994 530.843384,712.633057   C501.312073,702.483948 464.727448,722.132935 470.304352,763.850708   C472.828156,782.729980 483.849854,796.067078 502.681305,800.813171   C522.714478,805.862244 540.741272,801.774902 555.052490,785.365662   C549.892883,780.755920 544.951050,776.340698 539.822021,771.758240   C530.921570,781.621826 520.067017,784.852173 507.714264,780.803345   C500.195892,778.339050 496.464874,772.142212 495.199280,764.066467   C507.537292,764.066467 519.518616,764.066467 532.500000,764.067017  M905.711243,780.056091   C900.999084,769.873108 884.292969,769.903809 879.125000,779.041199   C875.589172,785.292725 876.438232,793.294800 881.487793,798.303894   C886.461548,803.237793 894.709717,803.968384 900.754944,800.010315   C907.111511,795.848572 909.002625,788.929626 905.711243,780.056091  M456.178162,778.500305   C456.178162,743.744934 456.178162,708.989563 456.178162,674.316711   C447.653320,674.316711 439.581024,674.316711 431.499817,674.316711   C431.499817,716.361389 431.499817,758.065186 431.499817,799.751709   C439.869812,799.751709 447.927032,799.751709 456.178162,799.751709   C456.178162,792.800232 456.178162,786.150269 456.178162,778.500305  M833.171326,685.711548   C835.872131,682.051941 838.572937,678.392334 841.649963,674.223022   C832.448669,674.223022 824.028259,674.223022 815.289856,674.223022   C812.117798,682.608398 808.922180,691.056091 805.678894,699.629822   C821.905334,701.257019 821.905090,701.256836 831.011353,688.727112   C831.598145,687.919739 832.191345,687.117126 833.171326,685.711548  z"></path><path fill="#ED0F12" stroke="none" d=" M612.040161,164.926331   C622.587341,173.834106 632.830933,182.564941 643.008545,191.372101   C647.285278,195.072968 648.255554,199.811325 646.190186,204.926239   C644.649536,208.741699 642.949768,212.618378 640.599304,215.960388   C628.122070,233.701889 611.845337,247.255936 592.941345,257.625519   C581.435242,263.937042 568.838684,263.482147 556.410950,261.576569   C543.305603,259.567078 530.333618,256.702972 517.273010,254.382721   C506.999756,252.557648 497.106384,254.168594 488.911835,260.655396   C470.801056,274.991791 453.099670,289.845337 435.629181,304.161865   C438.830292,312.986206 449.528961,316.223846 456.886902,313.132904   C463.666382,310.284943 470.011017,306.196350 476.128479,302.038208   C481.751709,298.215973 486.845764,293.608032 492.121460,289.283417   C500.803345,282.166687 508.023590,282.065063 516.700806,289.054291   C545.064453,311.900177 573.421753,334.753967 600.928833,356.917664   C615.661682,343.679016 630.256897,330.072021 645.433411,317.147644   C652.350647,311.256989 660.460022,306.777344 667.944519,301.537506   C672.635681,298.253174 677.487488,296.749939 682.801270,299.740753   C687.996338,302.664764 688.832275,307.943268 688.968933,313.117157   C689.661316,339.328125 685.124023,364.627380 675.735535,389.142242   C664.693054,417.975952 648.089111,443.552551 629.456177,467.813416   C610.101624,493.013733 589.971802,517.620728 570.070312,542.398254   C548.708557,568.993835 527.205322,595.475891 505.796082,622.033508   C502.308380,626.359985 501.254578,626.456604 497.922211,622.350281   C466.464783,583.586853 434.844330,544.954285 403.595154,506.023743   C382.781433,480.093842 362.101654,453.972900 345.544006,425.030792   C333.689758,404.310089 322.930969,382.876923 317.978363,359.282990   C308.827332,315.687897 313.691467,273.535797 334.360962,233.965378   C362.983826,179.168564 407.983704,145.333939 468.855896,134.001755   C520.501709,124.387199 568.013428,136.311356 612.040161,164.926331  M605.932129,207.064163   C605.932129,207.064163 605.920715,207.151749 605.720398,206.642181   C605.409241,206.471146 605.098145,206.300110 604.887573,206.101547   C604.887573,206.101547 604.850220,206.198914 604.933899,205.357346   C605.362793,200.951355 602.206421,202.157562 599.954895,202.040924   C599.954895,202.040924 599.895630,202.150879 599.944031,201.400543   C598.224243,196.788925 594.388855,195.464264 590.000000,195.000000   C590.000000,195.000000 589.999878,195.000397 589.985107,194.213699   C589.635437,189.936249 586.397522,191.223831 583.978943,191.000519   C583.978943,191.000519 583.945618,191.084885 583.964661,190.338181   C582.937866,189.202805 582.128113,187.588013 580.849365,187.008987   C571.791260,182.907425 562.646606,178.995651 553.506470,175.077240   C551.274048,174.120209 549.016907,173.090240 546.665894,172.564941   C539.307861,170.920975 531.960571,168.943710 524.496277,168.129028   C513.746582,166.955765 502.898041,166.224548 492.091217,166.218628   C485.902252,166.215240 479.685333,167.880722 473.532501,169.062790   C469.613251,169.815750 465.679108,170.763535 461.942535,172.141556   C452.546783,175.606674 443.183350,179.187866 433.979858,183.126602   C431.564117,184.160431 429.778870,186.667511 427.550476,188.607834   C427.550476,188.607834 427.387207,188.702682 426.628235,188.307083   C423.961426,188.455032 420.885895,188.025223 420.807129,192.756805   C419.922485,193.193512 419.037872,193.630203 417.517883,193.809097   C416.695435,194.567215 415.872986,195.325333 415.020569,196.002167   C415.020569,196.002167 415.087372,196.057297 414.353882,196.034378   C413.591064,196.725037 412.828278,197.415680 412.030487,198.012634   C412.030487,198.012634 412.108490,198.075195 411.350800,198.038681   C407.689545,198.639282 404.767853,200.110352 403.950623,204.651703   C403.752686,204.915283 403.488953,205.050247 402.652863,205.249817   C402.448975,205.539368 402.245087,205.828934 401.889099,206.575424   C401.697296,206.870193 401.425568,207.019745 400.601349,207.230469   C400.407288,207.507111 400.213196,207.783752 399.840454,208.601273   C399.272064,209.084686 398.703705,209.568100 397.380371,210.030411   C392.620636,211.677322 390.297852,215.387039 388.816254,220.511536   C388.242767,221.018646 387.669281,221.525757 386.611603,222.248993   C386.429993,222.544006 386.248413,222.839020 386.029999,223.045990   C386.029999,223.045990 386.117859,223.083191 385.361938,223.046997   C384.132874,224.843536 382.903839,226.640060 381.558105,228.541046   C381.558105,228.541046 381.466431,228.668030 380.806702,228.360321   C379.570312,229.155106 378.333923,229.949875 377.097565,230.744659   C377.067871,231.278488 377.038177,231.812332 377.008514,232.346161   C379.385712,233.196106 381.762939,234.046051 384.043671,234.966705   C384.043671,234.966705 384.094208,234.858276 384.052155,235.613113   C385.051453,236.749100 385.841736,238.273056 387.090576,238.945847   C390.388763,240.722733 394.088257,241.800064 397.265900,243.746918   C407.104095,249.774490 417.516541,254.472534 428.491791,257.934814   C429.864899,258.367950 431.479431,258.035645 433.843781,257.990845   C436.635956,258.319916 439.422272,258.713806 442.221375,258.966125   C451.454834,259.798370 459.731415,256.386383 468.449677,253.537827   C469.713226,253.298004 471.036285,253.222809 472.230591,252.791306   C479.378204,250.208939 486.429291,247.337753 493.654694,245.002472   C496.847473,243.970551 500.554291,244.485397 503.706146,243.380539   C508.574493,241.673981 512.997620,241.212845 517.908875,243.421921   C519.506714,244.140625 522.144714,242.546951 524.972534,241.923492   C525.188721,241.981537 525.404846,242.039566 525.307617,242.919266   C525.530945,243.488968 525.688721,244.518021 525.987183,244.560562   C532.017822,245.420410 538.058899,246.221832 544.117432,246.844727   C544.673950,246.901947 545.362488,245.673904 546.660645,244.937576   C547.106812,245.003113 547.552917,245.068634 548.030090,245.903244   C549.966187,249.255386 551.960144,249.040955 554.797363,245.894989   C555.864746,245.969742 556.932068,246.044495 558.154053,246.849640   C561.165466,250.419373 565.049622,248.849411 568.684326,248.595062   C571.605347,248.390640 574.811096,247.132812 577.360535,247.965286   C580.998596,249.153168 580.883728,247.424408 581.608704,244.780716   C583.043945,244.107605 584.479248,243.434494 585.990906,243.362808   C587.310791,242.214111 588.630615,241.065414 589.976624,239.998520   C589.976624,239.998520 589.911804,239.942215 590.652649,239.964706   C591.397156,239.254227 592.141663,238.543747 592.914612,237.927551   C592.914612,237.927551 592.821411,237.895889 593.325989,237.765244   C593.548950,237.508255 593.771973,237.251266 594.000000,237.000000   C594.000000,237.000000 593.994629,236.994553 594.781311,236.996811   C595.846008,235.975464 596.910645,234.954117 598.214661,233.413696   C598.986633,232.889847 599.758667,232.366013 601.304504,231.879654   C602.174255,230.845367 603.044006,229.811066 604.111938,228.262192   C604.679932,227.817429 605.247925,227.372681 606.608765,226.959076   C610.063354,226.725494 611.228088,224.716614 611.008301,220.967316   C611.641357,220.300400 612.274475,219.633499 613.393005,218.732574   C613.555237,218.421371 613.717468,218.110168 613.912537,217.899490   C613.912537,217.899490 613.814392,217.860260 614.463623,217.898346   C615.102539,217.374481 615.741455,216.850616 616.380310,216.326721   C615.630310,215.866486 614.880310,215.406250 614.045776,214.957535   C614.045776,214.957535 614.053894,214.872620 614.008911,214.126923   C613.551636,210.578949 611.880737,208.466827 607.492065,208.886505   C607.187134,208.712067 607.011780,208.450699 606.746033,207.615158   C606.445862,207.437454 606.145691,207.259735 605.932129,207.064163  M484.859375,311.377197   C478.549316,315.340790 472.557648,319.983246 465.861542,323.123749   C452.757690,329.269623 439.056244,326.805908 429.847931,317.626526   C420.635010,308.442657 420.639954,302.708160 430.209015,293.807159   C437.939056,286.616821 445.878662,279.651703 453.635345,272.667664   C445.605927,271.970337 437.127777,272.679077 429.667389,270.255249   C417.792267,266.396973 406.509857,260.634155 395.141388,255.324463   C387.390472,251.704376 379.920166,247.483490 372.316803,243.527267   C371.463043,244.676865 371.036133,245.171478 370.696747,245.720215   C355.842560,269.737640 351.009796,296.152740 352.106476,323.951233   C352.150513,325.067444 352.937927,326.544098 353.848663,327.178131   C368.419373,337.321259 383.066650,347.354401 397.863342,357.527313   C399.695953,356.490173 401.951691,355.082520 404.318573,353.896881   C414.364502,348.864532 425.630096,351.119537 431.923065,359.950165   C434.397430,363.422272 436.668182,363.871216 440.539093,362.855133   C455.787506,358.852661 466.609833,365.845062 469.912262,381.299866   C470.200317,382.647797 471.292969,384.551361 472.403900,384.882812   C482.895111,388.013092 488.928833,394.858826 489.917175,403.677002   C496.475647,407.386688 502.024872,409.879547 506.828796,413.391785   C514.339172,418.882751 521.192566,425.268158 528.655090,430.830994   C530.971191,432.557465 534.421753,433.764130 537.242981,433.574310   C541.388733,433.295410 544.583557,430.427063 545.765747,426.215698   C546.914429,422.123444 544.576721,419.109314 541.726013,416.653809   C532.017517,408.291290 522.250366,399.995361 512.421021,391.775177   C507.996307,388.074890 506.741699,384.057800 509.311554,380.665070   C511.949219,377.182739 516.123413,377.282288 520.693359,380.989105   C522.502441,382.456512 524.236450,384.016235 526.010010,385.527618   C535.259094,393.409515 544.482422,401.321899 553.775452,409.151611   C556.877563,411.765259 560.239807,413.904785 564.645325,412.711395   C573.062683,410.431305 575.458679,401.049042 568.944336,394.742249   C564.533447,390.471863 559.601562,386.733521 554.842529,382.830475   C549.053589,378.082764 543.120728,373.507324 537.409302,368.669434   C534.365906,366.091553 532.688538,362.684143 535.565430,359.077301   C538.206116,355.766571 541.722839,356.355835 545.013794,358.330902   C546.428955,359.180267 547.731262,360.242218 548.997803,361.310730   C559.428101,370.110229 569.762573,379.025299 580.284973,387.712799   C585.743347,392.219330 590.505920,392.068146 594.982056,387.829620   C599.581360,383.474426 600.141541,377.381500 596.116394,372.072449   C594.425903,369.842743 592.305847,367.876251 590.142273,366.077332   C563.396667,343.839417 536.575623,321.692047 509.863800,299.413727   C506.081390,296.259125 502.757050,296.434662 499.208130,299.414764   C494.620087,303.267365 490.036804,307.125610 484.859375,311.377197  M615.567139,363.088196   C611.230286,366.638885 610.016846,370.602203 611.364319,376.481445   C612.892090,383.146973 610.062744,389.460785 605.757935,394.939209   C600.511169,401.616455 593.366760,404.024994 585.270142,404.122437   C582.539368,418.232819 574.523438,425.887268 560.342834,426.227753   C558.741943,437.969330 548.407532,446.346954 535.427185,446.116852   C531.787292,446.052307 529.336304,446.802582 526.926331,449.672241   C518.975220,459.139618 502.099335,465.659760 490.554352,455.106140   C489.773315,454.392151 487.824280,454.495453 486.577454,454.823242   C475.063965,457.850128 467.333557,454.856354 460.286713,444.982330   C459.200043,443.459625 456.670441,442.226166 454.760162,442.155457   C444.571259,441.778503 438.049805,437.702667 434.438965,428.301758   C433.295776,425.325378 432.064240,423.936981 428.608856,423.670715   C418.234528,422.871216 411.168854,417.552032 409.162140,406.973572   C408.546112,403.726074 406.667542,404.100677 404.512634,404.026215   C396.880341,403.762573 391.258270,400.165802 387.563263,393.549805   C383.810760,386.830780 383.849091,379.708221 386.740509,372.917755   C388.574738,368.610168 387.553467,366.261230 384.042999,363.896729   C377.980377,359.813232 372.095520,355.466858 366.076080,351.317841   C361.946045,348.471191 357.714325,345.772003 352.681488,342.447723   C353.458649,346.856476 353.883301,350.140808 354.627991,353.350861   C360.378967,378.142181 372.981995,399.480408 388.636230,419.083710   C411.261444,447.416595 437.644531,472.149353 464.175140,496.723267   C476.852692,508.465820 489.266052,520.493591 501.916168,532.503357   C512.225464,522.671509 521.972900,513.128479 531.987122,503.874176   C556.323425,481.384583 581.774170,460.048920 603.594971,434.959381   C622.255676,413.503265 638.564697,390.543610 646.353455,362.709900   C649.125427,352.804199 650.660767,342.552429 652.760559,332.458618   C652.222168,332.262512 651.683716,332.066406 651.145264,331.870331   C638.276489,340.737488 626.871887,351.310486 615.567139,363.088196  M448.332062,395.827454   C450.915100,392.596100 453.840118,389.575226 455.992218,386.078613   C458.524323,381.964661 456.844604,376.793518 452.275909,375.526581   C449.195374,374.672333 444.897339,374.482910 442.372406,376.017426   C433.129944,381.634583 426.366547,389.888947 421.629211,399.575775   C419.688385,403.544312 421.078308,407.424561 424.610168,410.206085   C428.212860,413.043457 431.652802,411.599121 434.522247,409.075226   C439.131897,405.020721 443.443512,400.627350 448.332062,395.827454  M474.348785,411.671509   C477.953125,405.894440 478.127899,401.666199 474.889008,398.603607   C471.410980,395.315002 466.135223,395.140106 461.855530,399.165131   C456.674194,404.038116 451.754517,409.298096 447.419647,414.928070   C443.909515,419.486877 444.965179,425.049835 448.846863,428.299683   C452.396606,431.271606 456.637909,430.775696 461.161865,426.254059   C465.620148,421.797974 469.700317,416.963531 474.348785,411.671509  M417.610596,383.109314   C419.270966,381.033722 421.088654,379.063324 422.561249,376.862122   C426.452576,371.045319 423.039917,364.830444 416.186279,363.836395   C407.315765,362.549805 395.825043,376.555573 397.495453,382.872009   C398.379242,386.213989 400.605438,390.107788 403.398193,391.715546   C405.224152,392.766663 409.391663,390.584595 412.062439,389.064026   C414.116943,387.894318 415.473206,385.498291 417.610596,383.109314  M482.527588,421.937256   C479.844574,424.663849 477.101654,427.334564 474.492554,430.130188   C470.629303,434.269592 470.200958,437.824829 473.003998,441.179810   C475.842377,444.577057 481.371094,445.377350 485.087585,441.851288   C489.496185,437.668610 493.339783,432.777893 496.768860,427.744781   C497.781921,426.257843 497.415161,422.388306 496.161011,421.151031   C494.452301,419.465332 491.293335,418.644196 488.743683,418.616760   C486.861816,418.596497 484.959930,420.437561 482.527588,421.937256  M505.526550,438.062561   C503.428253,440.419678 501.329926,442.776764 499.167023,445.206390   C505.117676,449.265198 513.668640,447.417450 516.882690,441.385010   C519.737000,436.027679 513.125732,436.239716 511.270477,433.574677   C511.169708,433.429932 510.679932,433.556000 509.312256,433.556000   C508.543549,434.496399 507.289307,436.030853 505.526550,438.062561  z"></path><path fill="#EB0F11" stroke="none" d=" M631.347412,807.137817   C632.995056,801.152954 634.411316,795.467468 635.827515,789.782043   C635.440247,789.559631 635.052979,789.337219 634.665649,789.114807   C623.832947,799.859619 610.554565,801.591675 596.742188,798.553040   C579.998352,794.869507 570.026917,783.515137 566.691833,766.997131   C562.829590,747.868164 566.966614,730.823608 583.168945,718.446289   C594.136414,710.067993 606.876221,708.003784 620.029419,711.605225   C625.368835,713.067200 630.086731,716.798767 635.070251,719.488342   C635.316223,718.094910 635.736023,715.717102 636.195984,713.111511   C643.921509,713.111511 651.682190,713.111511 659.759338,713.111511   C659.844482,714.285828 659.994995,715.395081 659.995117,716.504395   C659.998474,740.996033 660.145691,765.489502 659.864014,789.978027   C659.792114,796.232178 659.081238,802.674683 657.401367,808.677368   C652.673767,825.570374 640.824280,834.976501 623.863831,838.063904   C604.070312,841.667053 586.069092,837.433533 569.670227,825.000061   C573.687012,819.137634 577.584534,813.449280 581.683105,807.467468   C590.646484,815.665649 600.964844,818.707275 612.616882,818.075867   C620.693848,817.638062 626.987732,814.529602 631.347412,807.137817  M621.476257,776.264648   C637.847900,771.375488 637.125732,745.926453 627.851807,738.297668   C625.023865,735.971375 621.495239,733.881470 617.978271,733.129578   C609.236450,731.260681 601.174866,733.201477 596.059448,741.140198   C590.607727,749.600830 590.439514,758.758728 595.312439,767.559814   C600.219910,776.423279 607.712219,778.873169 621.476257,776.264648  z"></path><path fill="#EB0E11" stroke="none" d=" M277.884155,720.116882   C285.727936,727.760254 287.698273,737.353821 287.890106,747.273926   C288.224915,764.588501 287.983337,781.914307 287.983337,799.633850   C280.018707,799.633850 272.133209,799.633850 264.081848,799.633850   C263.629486,797.347717 263.155945,794.954529 262.604126,792.165894   C252.128494,802.935425 239.552170,804.849243 225.874634,801.017456   C214.498123,797.830261 206.465851,788.499756 205.947266,778.702148   C205.203339,764.647705 210.323807,756.581482 223.018738,750.833862   C233.894485,745.909912 245.484543,747.152527 256.840118,746.282104   C258.453766,746.158386 260.085052,746.265015 261.738617,746.265015   C261.163208,737.904175 258.131378,733.656616 251.538635,731.529968   C241.828339,728.397705 231.182663,731.586243 223.956024,739.960999   C218.984589,735.895508 214.004272,731.822693 208.597961,727.401611   C214.184174,720.388611 220.993942,715.545227 229.428238,712.901123   C241.520828,709.110291 253.680969,708.905029 265.627838,713.060303   C269.901459,714.546692 273.647217,717.550781 277.884155,720.116882  M254.601486,780.238464   C261.056000,775.780518 262.942108,769.643738 261.536438,762.015076   C257.927368,762.015076 254.597778,761.782776 251.314133,762.072083   C246.909836,762.460144 242.363373,762.688660 238.199158,764.003235   C232.108826,765.925781 229.909363,770.115479 230.879013,775.800964   C231.739807,780.848145 235.727036,784.289856 241.701889,783.850708   C245.862015,783.544922 249.916321,781.799500 254.601486,780.238464  z"></path><path fill="#EB0E11" stroke="none" d=" M532.000000,764.066772   C519.518616,764.066467 507.537292,764.066467 495.199280,764.066467   C496.464874,772.142212 500.195892,778.339050 507.714264,780.803345   C520.067017,784.852173 530.921570,781.621826 539.822021,771.758240   C544.951050,776.340698 549.892883,780.755920 555.052490,785.365662   C540.741272,801.774902 522.714478,805.862244 502.681305,800.813171   C483.849854,796.067078 472.828156,782.729980 470.304352,763.850708   C464.727448,722.132935 501.312073,702.483948 530.843384,712.633057   C547.059265,718.205994 554.831055,730.785706 556.891357,747.150940   C557.568542,752.529846 556.997986,758.065857 556.997986,764.067017   C548.692993,764.067017 540.596497,764.067017 532.000000,764.066772  M527.959778,733.543091   C521.399170,727.639526 513.797119,727.341248 506.142731,730.346252   C499.026123,733.140015 496.066284,739.321411 494.939941,746.704651   C507.812439,746.704651 520.333191,746.704651 534.175476,746.704651   C532.056641,742.019958 530.262268,738.052612 527.959778,733.543091  z"></path><path fill="#EB0F11" stroke="none" d=" M848.259705,723.906311   C848.605652,723.915710 848.846436,724.079651 849.004517,725.041748   C849.852417,726.494507 850.677856,727.303711 851.503296,728.112854   C851.503296,728.112854 851.741882,728.320618 851.570801,728.812866   C851.689819,730.399292 851.908813,731.518372 852.281189,732.583801   C855.565125,741.979553 857.464722,751.515869 855.387573,761.996521   C843.551270,761.996521 831.755432,761.995850 819.959595,761.996765   C813.054993,761.997314 806.147766,761.908203 799.248474,762.099060   C798.181946,762.128601 797.151123,763.447266 796.103760,764.169678   C796.103760,764.169678 796.075745,764.077393 795.796509,764.098267   C794.545715,767.338257 794.035461,770.402710 798.133423,771.922180   C798.133423,771.922180 798.036682,771.947937 798.044678,772.278748   C798.741760,773.392456 799.430786,774.175354 800.119751,774.958313   C801.004517,775.769775 801.889282,776.581238 803.017700,777.904114   C803.561829,778.584778 803.862244,778.754028 804.162720,778.923279   C804.162720,778.923279 804.076904,778.939331 804.100769,779.257812   C811.803101,787.031921 821.446777,785.322144 831.938721,780.867065   C833.949646,780.013184 837.646851,779.848022 836.906189,775.857849   C836.906189,775.857849 836.955261,775.958740 837.250488,775.955933   C837.990417,775.285156 838.435120,774.617188 838.879761,773.949219   C840.114563,773.679443 841.909607,772.748474 842.495239,773.244751   C847.051270,777.105713 851.374451,781.241577 855.907288,785.419373   C841.663086,801.431885 823.957703,805.825928 803.922180,800.945740   C786.958679,796.813843 776.032227,785.428833 772.226318,768.627625   C767.859558,749.350525 771.834839,732.000671 788.848328,719.281494   C793.009399,717.972290 796.729736,716.687012 800.238586,714.969604   C807.600769,711.366211 815.367615,713.178406 822.965332,713.101929   C825.603088,713.075317 828.286621,714.166199 830.890076,714.944763   C835.002197,716.174500 839.064270,717.571411 843.147522,718.897583   C843.147522,718.897583 843.051331,718.952820 843.073364,719.263306   C844.816833,721.018005 846.538269,722.462158 848.259705,723.906311  M814.500488,746.978455   C820.959351,746.978455 827.418274,746.978455 833.880005,746.978455   C833.621277,735.570251 826.879333,728.700256 816.277222,728.663635   C804.760437,728.623840 796.889709,735.853210 796.573730,746.979248   C802.219482,746.979248 807.860474,746.979248 814.500488,746.978455  M842.608032,776.798096   C842.213989,776.793823 841.819885,776.789551 841.425842,776.785278   C841.424377,776.948792 841.411865,777.254517 841.422974,777.255371   C841.815063,777.285706 842.209351,777.287476 842.608032,776.798096  z"></path><path fill="#EB0F12" stroke="none" d=" M180.036133,697.012390   C179.954529,696.671143 180.026917,696.366455 180.836227,695.986694   C184.610733,692.354309 187.802322,688.833557 191.536301,684.714478   C191.464813,684.257446 190.799728,682.712402 191.130478,681.422852   C191.528717,679.870117 192.713226,677.342773 193.661026,677.294983   C200.645203,676.942932 207.655273,677.104736 214.879532,677.104736   C213.438843,682.002258 212.249161,686.046570 211.059479,690.090820   C211.059494,690.090820 211.001419,690.028137 210.684021,690.059143   C206.542755,694.036072 202.886459,698.069336 203.067947,704.101685   C203.067947,704.101685 203.007858,704.029724 202.645020,704.038330   C201.551743,705.778625 200.821320,707.510193 200.090912,709.241821   C200.090912,709.241821 200.068695,709.669617 199.549957,709.844482   C194.861221,710.554077 196.226273,713.704773 196.127441,716.163574   C196.127441,716.163574 196.050858,716.051880 195.743317,716.080566   C190.351212,719.407898 188.128174,724.200928 188.106613,730.143677   C188.106613,730.143677 188.036667,730.044739 187.694763,730.051514   C183.741531,731.040405 184.500259,733.808960 184.769669,736.377502   C184.769669,736.377502 184.679230,736.611755 184.233978,736.506531   C179.543655,737.328186 180.825089,740.644409 180.770279,743.382935   C180.770279,743.382935 180.679718,743.627991 180.236908,743.514771   C174.208511,744.565796 175.244553,749.425110 175.138947,752.923523   C174.777878,764.885254 175.033447,776.864685 174.985260,788.837097   C174.962341,794.529907 171.388062,798.303284 166.542206,797.995178   C162.213638,797.719971 157.881866,797.494934 153.779083,797.260742   C153.779083,784.342957 153.931168,771.280396 153.656464,758.226746   C153.598404,755.467834 151.978500,752.741699 151.078217,750.000488   C151.078232,750.000488 150.878204,749.660278 151.019394,749.126953   C151.764420,747.165405 152.368256,745.737122 152.972092,744.308899   C152.447495,744.427795 151.922897,744.546692 151.398300,744.665527   C149.877701,742.425354 148.465973,740.100769 146.811417,737.964294   C144.225052,734.624573 141.474243,731.412109 138.793121,728.145752   C138.793106,728.145752 138.917282,728.076050 138.921692,727.742920   C136.673584,722.982910 134.611664,718.444519 132.107117,714.165222   C130.165237,710.847290 130.260651,705.897339 125.191528,704.888367   C125.073647,704.638733 124.955772,704.389160 125.277771,703.940979   C125.870827,703.678162 126.024002,703.614014 126.177185,703.549927   C125.872017,703.452209 125.566849,703.354553 125.261673,703.256958   C125.300705,703.451355 125.339737,703.645691 125.163574,703.503296   C121.299393,696.112000 117.644608,689.060547 114.007378,682.000061   C113.430542,680.880310 112.932846,679.719849 112.398544,678.578186   C113.679596,678.052551 114.947197,677.115784 116.244064,677.073303   C121.535568,676.900208 126.837730,677.083618 132.132645,676.974609   C136.563309,676.883423 138.510117,678.701721 139.178329,683.296448   C139.767151,687.345398 142.648300,690.486694 146.779053,692.001465   C147.221954,692.756348 147.664841,693.511292 147.813599,694.616577   C146.876190,695.446106 145.630920,696.275452 145.676544,696.353943   C147.453537,699.408386 149.226746,702.483704 151.316177,705.323975   C151.813538,706.000061 153.419571,705.860657 154.515625,706.096313   C154.515625,706.096375 154.744858,706.317871 154.553162,706.838745   C154.237473,711.181458 154.487869,714.757629 159.507721,715.205383   C159.507721,715.205383 159.671722,715.391174 159.501099,715.875366   C160.612381,719.877380 161.894302,723.395142 163.176239,726.912842   C163.762863,726.954346 164.349487,726.995789 164.936111,727.037292   C166.410461,722.744873 171.711853,720.440918 170.241516,714.618469   C170.241516,714.618469 170.330582,714.398010 170.749664,714.492065   C172.725388,711.324951 174.282043,708.063843 175.838715,704.802734   C175.838715,704.802734 175.914536,704.923706 176.209961,704.890747   C177.682297,702.242676 178.859207,699.627502 180.036133,697.012390  z"></path><path fill="#EB0F12" stroke="none" d=" M685.877258,795.046143   C685.530945,795.041504 685.264709,794.893127 685.027100,793.924927   C684.752930,790.984314 685.328064,787.363159 684.173035,786.683838   C678.330627,783.247864 678.429260,777.184937 678.253723,772.256042   C677.627014,754.660034 677.960449,737.027771 678.115173,719.410950   C678.125183,718.276917 679.647400,716.230530 680.551636,716.181396   C686.108398,715.879333 691.689697,716.030029 697.990234,716.030029   C697.990234,733.405273 697.990234,751.305237 697.990234,769.590515   C699.258362,770.465759 701.094482,771.733032 702.930542,773.000244   C706.658813,779.546997 712.583191,780.972412 719.471008,780.013977   C726.765930,778.998718 730.513611,774.093262 733.312439,767.245239   C733.888916,764.897034 733.955688,762.950867 734.022461,761.004761   C733.983154,755.636902 733.943787,750.268982 734.259399,744.176758   C734.439819,741.307983 734.265320,739.163574 734.090820,737.019165   C734.033203,734.631470 733.975647,732.243774 734.264404,729.165161   C734.440063,726.656250 734.269287,724.838318 734.098450,723.020325   C734.049316,720.308960 734.000122,717.597534 734.475525,714.443726   C738.332642,713.671326 741.665222,713.341309 744.997742,713.011353   C746.394775,712.952393 747.791809,712.893433 749.779907,713.179688   C751.244019,713.365662 752.117004,713.206482 752.990051,713.047302   C754.064575,712.987854 755.139099,712.928406 756.606812,713.426147   C757.001404,729.644836 757.003418,745.306458 757.003906,760.968018   C757.004211,771.797852 757.075989,782.628723 756.916809,793.456238   C756.894714,794.956848 755.796387,797.695984 755.079651,797.735352   C748.856689,798.076782 742.607056,797.932190 736.840759,797.932190   C736.046204,795.369751 735.523132,793.682739 734.944275,791.654419   C733.886353,790.891357 723.725830,793.413391 723.537781,794.336121   C722.763550,798.135864 719.778015,798.388489 716.830627,799.135864   C715.725586,799.416077 714.933960,800.932251 713.999451,801.884949   C713.555786,801.954529 713.112183,802.024170 712.085571,801.767883   C708.007935,800.959106 703.919983,801.455261 701.149597,799.776794   C696.305847,796.842163 691.017944,796.408691 685.877258,795.046143  z"></path><path fill="#EB0F12" stroke="none" d=" M368.917694,676.997192   C368.972778,678.069031 369.027893,679.140869 368.609741,680.704346   C367.759033,682.378967 367.054443,683.561340 367.051971,684.745178   C366.990265,714.226074 366.977112,743.707275 367.089996,773.187805   C367.094788,774.446838 368.387299,775.700806 369.079956,776.957153   C369.079956,776.957153 368.997742,776.979126 369.025787,777.366455   C370.423187,778.499878 371.780731,779.866272 373.163788,779.892639   C382.976959,780.079712 392.795349,779.992493 402.612091,779.992615   C416.577118,779.992798 416.577057,779.992798 416.005402,794.025085   C415.998657,794.191284 415.986938,794.359314 416.003326,794.523926   C416.260193,797.102661 415.096130,798.034851 412.524475,798.027466   C391.560089,797.967590 370.595428,797.975037 349.631012,798.023682   C347.220642,798.029297 345.968445,797.409363 345.949249,794.680542   C345.914337,789.716919 345.344696,784.754028 345.379425,779.793518   C345.490997,763.848938 345.830322,747.906067 345.950867,731.961548   C345.975616,728.682312 345.195374,725.398804 345.194977,722.117310   C345.193268,708.372803 345.478302,694.626831 345.330292,680.884949   C345.301575,678.219666 345.906860,677.057312 348.384338,677.033569   C355.228271,676.967957 362.073181,677.002380 368.917694,676.997192  z"></path><path fill="#EB0F12" stroke="none" d=" M901.963379,733.990295   C901.995728,734.745850 902.028076,735.501404 901.614136,736.674744   C895.783325,739.022095 894.660950,740.881897 896.890137,744.180725   C900.331116,749.272766 900.009827,752.067749 896.002319,756.216248   C892.437988,754.387024 889.076599,752.661987 885.307373,750.727600   C885.421692,750.286743 886.639038,748.175415 886.060486,747.394348   C882.816895,743.015564 888.412781,737.031799 883.285767,733.113831   C882.970703,732.873047 883.537903,731.579895 883.565186,730.771973   C883.727722,725.963806 884.040710,721.146912 883.852661,716.350647   C883.807556,715.199280 882.055542,714.114807 881.088623,712.999573   C881.027588,712.552063 880.966553,712.104553 881.310059,711.126465   C882.143005,708.902222 882.970581,707.198669 882.929138,705.516541   C882.771484,699.114807 882.154785,692.723022 882.042236,686.321777   C881.877869,676.966064 882.002441,676.853271 891.591858,677.060974   C894.879211,677.132080 898.151306,677.909485 902.052124,678.450439   C902.052124,683.214722 902.052124,688.651855 902.052124,694.285278   C900.194214,693.941528 899.264038,693.769409 897.864380,693.510498   C903.328491,701.304321 902.885864,715.502563 898.673279,718.466614   C899.317871,722.830566 899.777405,726.525696 900.449402,730.181702   C900.691589,731.499451 901.443909,732.723511 901.963379,733.990295  M897.703430,715.568665   C897.989319,715.295837 898.275146,715.022949 898.560974,714.750061   C898.447876,714.631714 898.242554,714.404297 898.234802,714.410828   C897.933289,714.665405 897.649841,714.941467 897.703430,715.568665  z"></path><path fill="#E9080A" stroke="none" d=" M369.011230,676.557739   C362.073181,677.002380 355.228271,676.967957 348.384338,677.033569   C345.906860,677.057312 345.301575,678.219666 345.330292,680.884949   C345.478302,694.626831 345.193268,708.372803 345.194977,722.117310   C345.195374,725.398804 345.975616,728.682312 345.950867,731.961548   C345.830322,747.906067 345.490997,763.848938 345.379425,779.793518   C345.344696,784.754028 345.914337,789.716919 345.949249,794.680542   C345.968445,797.409363 347.220642,798.029297 349.631012,798.023682   C370.595428,797.975037 391.560089,797.967590 412.524475,798.027466   C415.096130,798.034851 416.260193,797.102661 416.003326,794.523926   C415.986938,794.359314 415.998657,794.191284 416.005402,794.025085   C416.577057,779.992798 416.577118,779.992798 402.612091,779.992615   C392.795349,779.992493 382.976959,780.079712 373.163788,779.892639   C371.780731,779.866272 370.423187,778.499878 369.052094,777.333008   C385.356445,776.912231 401.662506,776.912231 418.253784,776.912231   C418.253784,784.732239 418.253784,792.138489 418.253784,799.783752   C393.310791,799.783752 368.416534,799.783752 343.266907,799.783752   C343.266907,757.938965 343.266907,716.229553 343.266907,674.015808   C351.339081,674.015808 359.282959,673.967651 367.223572,674.106750   C367.862213,674.117981 368.478241,675.417480 369.011230,676.557739  z"></path><path fill="#EA1013" stroke="none" d=" M905.863708,780.408936   C909.002625,788.929626 907.111511,795.848572 900.754944,800.010315   C894.709717,803.968384 886.461548,803.237793 881.487793,798.303894   C876.438232,793.294800 875.589172,785.292725 879.125000,779.041199   C884.292969,769.903809 900.999084,769.873108 905.863708,780.408936  z"></path><path fill="#EA1B1C" stroke="none" d=" M456.178162,779.000244   C456.178162,786.150269 456.178162,792.800232 456.178162,799.751709   C447.927032,799.751709 439.869812,799.751709 431.499817,799.751709   C431.499817,758.065186 431.499817,716.361389 431.499817,674.316711   C439.581024,674.316711 447.653320,674.316711 456.178162,674.316711   C456.178162,708.989563 456.178162,743.744934 456.178162,779.000244  M455.015961,792.295166   C455.015930,769.812195 455.015686,747.329224 455.015961,724.846252   C455.016144,710.690308 454.823181,696.530090 455.129486,682.380798   C455.228638,677.800903 453.705719,676.485718 449.429352,676.937439   C446.464600,677.250610 443.440247,676.993896 440.442505,677.000793   C434.021027,677.015564 434.002869,677.017944 434.001801,683.369751   C433.995667,719.842163 433.998901,756.314514 433.998932,792.786926   C433.998932,794.347534 433.998901,795.908142 433.998901,797.519714   C441.320007,797.519714 447.802307,797.519714 454.715790,797.519714   C454.814667,796.113037 454.915955,794.671692 455.015961,792.295166  z"></path><path fill="#EB0F11" stroke="none" d=" M832.976440,686.011963   C832.191345,687.117126 831.598145,687.919739 831.011353,688.727112   C821.905090,701.256836 821.905334,701.257019 805.678894,699.629822   C808.922180,691.056091 812.117798,682.608398 815.289856,674.223022   C824.028259,674.223022 832.448669,674.223022 841.649963,674.223022   C838.572937,678.392334 835.872131,682.051941 832.976440,686.011963  z"></path><path fill="#EA1013" stroke="none" d=" M702.899719,772.605957   C701.094482,771.733032 699.258362,770.465759 697.990234,769.590515   C697.990234,751.305237 697.990234,733.405273 697.990234,716.030029   C691.689697,716.030029 686.108398,715.879333 680.551636,716.181396   C679.647400,716.230530 678.125183,718.276917 678.115173,719.410950   C677.960449,737.027771 677.627014,754.660034 678.253723,772.256042   C678.429260,777.184937 678.330627,783.247864 684.173035,786.683838   C685.328064,787.363159 684.752930,790.984314 684.959839,793.697998   C677.960449,788.083801 675.602783,779.873779 675.448059,771.205078   C675.104614,751.964233 675.340942,732.713135 675.340942,713.189697   C683.858887,713.189697 692.223755,713.189697 701.031494,713.189697   C701.031494,729.566284 700.929077,745.810059 701.114868,762.050537   C701.153625,765.443848 702.256409,768.825012 702.899719,772.605957  z"></path><path fill="#EA1013" stroke="none" d=" M902.074707,733.600586   C901.443909,732.723511 900.691589,731.499451 900.449402,730.181702   C899.777405,726.525696 899.317871,722.830566 898.673279,718.466614   C902.885864,715.502563 903.328491,701.304321 897.864380,693.510498   C899.264038,693.769409 900.194214,693.941528 902.052124,694.285278   C902.052124,688.651855 902.052124,683.214722 902.052124,678.450439   C898.151306,677.909485 894.879211,677.132080 891.591858,677.060974   C882.002441,676.853271 881.877869,676.966064 882.042236,686.321777   C882.154785,692.723022 882.771484,699.114807 882.929138,705.516541   C882.970581,707.198669 882.143005,708.902222 881.373718,710.792236   C880.258606,698.894226 879.484253,686.799927 878.686890,674.344971   C887.506348,674.344971 895.903442,674.344971 905.128540,674.344971   C904.152283,693.875488 903.169128,713.543152 902.074707,733.600586  z"></path><path fill="#EB0E11" stroke="none" d=" M151.028107,750.466797   C151.978500,752.741699 153.598404,755.467834 153.656464,758.226746   C153.931168,771.280396 153.779083,784.342957 153.779083,797.260742   C157.881866,797.494934 162.213638,797.719971 166.542206,797.995178   C171.388062,798.303284 174.962341,794.529907 174.985260,788.837097   C175.033447,776.864685 174.777878,764.885254 175.138947,752.923523   C175.244553,749.425110 174.208511,744.565796 180.146133,743.608765   C179.637787,746.725098 178.079712,749.623169 178.033524,752.545227   C177.786560,768.169373 177.917038,783.799500 177.917038,799.728394   C168.937836,799.728394 160.215057,799.728394 150.978012,799.728394   C150.978012,783.451416 150.978012,767.192261 151.028107,750.466797  z"></path><path fill="#EA1013" stroke="none" d=" M881.020508,713.463684   C882.055542,714.114807 883.807556,715.199280 883.852661,716.350647   C884.040710,721.146912 883.727722,725.963806 883.565186,730.771973   C883.537903,731.579895 882.970703,732.873047 883.285767,733.113831   C888.412781,737.031799 882.816895,743.015564 886.060486,747.394348   C886.639038,748.175415 885.421692,750.286743 885.307373,750.727600   C889.076599,752.661987 892.437988,754.387024 896.002319,756.216248   C900.009827,752.067749 900.331116,749.272766 896.890137,744.180725   C894.660950,740.881897 895.783325,739.022095 901.536316,737.046143   C901.904724,744.455566 901.904724,751.911316 901.904724,759.694946   C895.162781,759.694946 889.114136,759.694946 882.631836,759.694946   C882.072449,744.450989 881.512390,729.189392 881.020508,713.463684  M899.482910,740.587830   C899.482910,740.587830 899.416748,740.476990 899.482910,740.587830  z"></path><path fill="#E90204" stroke="none" d=" M735.000000,791.995728   C735.523132,793.682739 736.046204,795.369751 736.840759,797.932190   C742.607056,797.932190 748.856689,798.076782 755.079651,797.735352   C755.796387,797.695984 756.894714,794.956848 756.916809,793.456238   C757.075989,782.628723 757.004211,771.797852 757.003906,760.968018   C757.003418,745.306458 757.001404,729.644836 757.001953,713.518066   C757.663818,713.653320 758.899170,714.251831 758.901245,714.854553   C758.996155,743.067322 758.983887,771.280579 758.983887,799.986816   C751.063293,799.986816 743.473145,799.986816 735.414795,799.715698   C734.946655,799.444519 734.638428,799.092468 734.638428,799.092468   C734.543335,798.619019 734.448242,798.145508 734.526489,797.203735   C734.793396,796.393921 734.667969,796.155945 734.323730,796.021606   C734.229309,794.946106 734.134888,793.870667 734.287598,792.395630   C734.534607,791.996094 735.000000,791.995728 735.000000,791.995728  z"></path><path fill="#E9080A" stroke="none" d=" M796.562744,764.116821   C797.151123,763.447266 798.181946,762.128601 799.248474,762.099060   C806.147766,761.908203 813.054993,761.997314 819.959595,761.996765   C831.755432,761.995850 843.551270,761.996521 855.387573,761.996521   C857.464722,751.515869 855.565125,741.979553 852.281189,732.583801   C851.908813,731.518372 851.689819,730.399292 851.619751,728.963379   C858.649841,739.473572 859.330139,751.388306 858.138855,764.063904   C837.619080,764.063904 817.320374,764.063904 796.562744,764.116821  z"></path><path fill="#EB0E11" stroke="none" d=" M146.710510,691.666138   C142.648300,690.486694 139.767151,687.345398 139.178329,683.296448   C138.510117,678.701721 136.563309,676.883423 132.132645,676.974609   C126.837730,677.083618 121.535568,676.900208 116.244064,677.073303   C114.947197,677.115784 113.679596,678.052551 112.398544,678.578186   C112.932846,679.719849 113.430542,680.880310 114.007378,682.000061   C117.644608,689.060547 121.299393,696.112000 124.885040,703.607483   C119.000938,694.315186 113.180153,684.581909 106.879860,674.046753   C116.892448,674.046753 126.084381,673.941101 135.267578,674.176514   C136.456909,674.206970 137.967789,675.782166 138.700958,677.015564   C141.487854,681.704224 144.016678,686.546204 146.710510,691.666138  z"></path><path fill="#E9080A" stroke="none" d=" M369.068146,776.491455   C368.387299,775.700806 367.094788,774.446838 367.089996,773.187805   C366.977112,743.707275 366.990265,714.226074 367.051971,684.745178   C367.054443,683.561340 367.759033,682.378967 368.526917,681.099609   C368.963684,712.677490 369.010010,744.351624 369.068146,776.491455  z"></path><path fill="#EB0E11" stroke="none" d=" M211.338928,689.891724   C212.249161,686.046570 213.438843,682.002258 214.879532,677.104736   C207.655273,677.104736 200.645203,676.942932 193.661026,677.294983   C192.713226,677.342773 191.528717,679.870117 191.130478,681.422852   C190.799728,682.712402 191.464813,684.257446 191.536301,684.714478   C187.802322,688.833557 184.610733,692.354309 181.053589,695.879700   C184.185196,689.307434 187.584106,682.674438 191.275055,676.208130   C191.898804,675.115479 193.767044,674.159790 195.083191,674.129272   C203.231628,673.940491 211.386597,674.034302 220.507385,674.034302   C217.358017,679.582031 214.488205,684.637390 211.338928,689.891724  M188.588058,685.517212   C188.588058,685.517212 188.476974,685.583435 188.588058,685.517212  z"></path><path fill="#E9080A" stroke="none" d=" M842.986206,718.596191   C839.064270,717.571411 835.002197,716.174500 830.890076,714.944763   C828.286621,714.166199 825.603088,713.075317 822.965332,713.101929   C815.367615,713.178406 807.600769,711.366211 800.238586,714.969604   C796.729736,716.687012 793.009399,717.972290 789.174744,719.187012   C804.395447,707.224304 826.264160,706.970215 842.986206,718.596191  z"></path><path fill="#E9080A" stroke="none" d=" M836.577026,775.983154   C837.646851,779.848022 833.949646,780.013184 831.938721,780.867065   C821.446777,785.322144 811.803101,787.031921 804.107971,779.214722   C815.382812,784.646973 826.071045,783.373291 836.577026,775.983154  z"></path><path fill="#EA1013" stroke="none" d=" M686.033569,795.355164   C691.017944,796.408691 696.305847,796.842163 701.149597,799.776794   C703.919983,801.455261 708.007935,800.959106 711.750122,801.717651   C702.352173,804.135864 693.858093,801.583679 686.033569,795.355164  z"></path><path fill="#EA1013" stroke="none" d=" M734.944275,791.654419   C735.000000,791.995728 734.534607,791.996094 734.302002,791.988770   C727.966675,795.943848 722.486816,801.108154 714.390381,801.931519   C714.933960,800.932251 715.725586,799.416077 716.830627,799.135864   C719.778015,798.388489 722.763550,798.135864 723.537781,794.336121   C723.725830,793.413391 733.886353,790.891357 734.944275,791.654419  z"></path><path fill="#EB0E11" stroke="none" d=" M138.864090,728.496338   C141.474243,731.412109 144.225052,734.624573 146.811417,737.964294   C148.465973,740.100769 149.877701,742.425354 151.398300,744.665527   C151.922897,744.546692 152.447495,744.427795 152.972092,744.308899   C152.368256,745.737122 151.764420,747.165405 151.019012,748.929565   C146.896637,742.459351 142.915848,735.653137 138.864090,728.496338  z"></path><path fill="#EB0E11" stroke="none" d=" M125.225296,705.188599   C130.260651,705.897339 130.165237,710.847290 132.107117,714.165222   C134.611664,718.444519 136.673584,722.982910 138.883667,727.803101   C134.313812,720.627258 129.786438,713.058044 125.225296,705.188599  z"></path><path fill="#EB0E11" stroke="none" d=" M170.064880,714.881958   C171.711853,720.440918 166.410461,722.744873 164.936111,727.037292   C164.349487,726.995789 163.762863,726.954346 163.176239,726.912842   C161.894302,723.395142 160.612381,719.877380 159.543335,715.991882   C161.354889,718.394836 162.953568,721.165527 164.801956,724.369019   C166.616272,721.078918 168.252258,718.112183 170.064880,714.881958  z"></path><path fill="#EB0E11" stroke="none" d=" M188.403748,729.968811   C188.128174,724.200928 190.351212,719.407898 195.802338,716.113770   C193.679565,720.676880 191.190231,725.235413 188.403748,729.968811  z"></path><path fill="#EB0E11" stroke="none" d=" M154.371155,705.807922   C153.419571,705.860657 151.813538,706.000061 151.316177,705.323975   C149.226746,702.483704 147.453537,699.408386 145.676544,696.353943   C145.630920,696.275452 146.876190,695.446106 147.875916,694.943237   C150.230469,698.452881 152.228577,701.986206 154.371155,705.807922  z"></path><path fill="#EB0E11" stroke="none" d=" M203.356567,703.917297   C202.886459,698.069336 206.542755,694.036072 210.725494,690.069519   C208.604630,694.610229 206.124908,699.171570 203.356567,703.917297  z"></path><path fill="#EB0E11" stroke="none" d=" M159.359833,714.915283   C154.487869,714.757629 154.237473,711.181458 154.591980,706.993408   C156.285660,709.293152 157.748810,711.959167 159.359833,714.915283  z"></path><path fill="#EB0E11" stroke="none" d=" M175.545731,704.986023   C174.282043,708.063843 172.725388,711.324951 170.826874,714.401611   C172.074249,711.201233 173.663513,708.185242 175.545731,704.986023  z"></path><path fill="#EB0E11" stroke="none" d=" M180.951080,743.129822   C180.825089,740.644409 179.543655,737.328186 184.148972,736.598877   C183.383423,738.823242 182.257660,740.849976 180.951080,743.129822  z"></path><path fill="#E9080A" stroke="none" d=" M798.091736,771.549377   C794.035461,770.402710 794.545715,767.338257 795.842651,764.112183   C796.795410,766.462280 797.422729,768.819458 798.091736,771.549377  z"></path><path fill="#EB0E11" stroke="none" d=" M179.796173,697.253662   C178.859207,699.627502 177.682297,702.242676 176.147797,704.855652   C177.045547,702.400635 178.300888,699.947754 179.796173,697.253662  z"></path><path fill="#EB0E11" stroke="none" d=" M196.418335,716.000977   C196.226273,713.704773 194.861221,710.554077 199.412781,710.009033   C198.766006,711.945251 197.737625,713.891785 196.418335,716.000977  z"></path><path fill="#EB0E11" stroke="none" d=" M184.944733,736.120239   C184.500259,733.808960 183.741531,731.040405 187.749252,730.077942   C187.137024,732.019409 186.128403,733.941162 184.944733,736.120239  z"></path><path fill="#E9080A" stroke="none" d=" M848.128296,723.598633   C846.538269,722.462158 844.816833,721.018005 843.095581,719.212524   C844.729492,720.331116 846.363159,721.811096 848.128296,723.598633  z"></path><path fill="#EB0E11" stroke="none" d=" M200.374146,709.053894   C200.821320,707.510193 201.551743,705.778625 202.689636,704.052612   C202.283875,705.660828 201.470642,707.263428 200.374146,709.053894  z"></path><path fill="#E90204" stroke="none" d=" M733.893860,761.360352   C733.955688,762.950867 733.888916,764.897034 733.465698,766.917603   C733.327820,765.233398 733.546509,763.474670 733.893860,761.360352  z"></path><path fill="#E90204" stroke="none" d=" M744.549316,712.922729   C741.665222,713.341309 738.332642,713.671326 734.554321,713.998108   C737.439270,713.607971 740.770081,713.221069 744.549316,712.922729  z"></path><path fill="#E90204" stroke="none" d=" M734.015320,737.449219   C734.265320,739.163574 734.439819,741.307983 734.348450,743.715210   C734.034973,741.945068 733.987427,739.912170 734.015320,737.449219  z"></path><path fill="#E9080A" stroke="none" d=" M851.343018,727.863220   C850.677856,727.303711 849.852417,726.494507 849.039612,725.268555   C849.762390,725.772339 850.472534,726.692932 851.343018,727.863220  z"></path><path fill="#E90204" stroke="none" d=" M734.024475,723.441040   C734.269287,724.838318 734.440063,726.656250 734.351074,728.725037   C734.044373,727.271118 733.997437,725.566406 734.024475,723.441040  z"></path><path fill="#E9080A" stroke="none" d=" M838.611633,774.059570   C838.435120,774.617188 837.990417,775.285156 837.201965,775.927795   C837.353210,775.324951 837.848328,774.747437 838.611633,774.059570  z"></path><path fill="#E9080A" stroke="none" d=" M800.023743,774.656982   C799.430786,774.175354 798.741760,773.392456 798.072021,772.236816   C798.703430,772.694580 799.315552,773.525146 800.023743,774.656982  z"></path><path fill="#E90204" stroke="none" d=" M752.622192,712.963196   C752.117004,713.206482 751.244019,713.365662 750.189697,713.278809   C750.757080,712.981567 751.505737,712.930298 752.622192,712.963196  z"></path><path fill="#E9080A" stroke="none" d=" M804.053589,778.677979   C803.862244,778.754028 803.561829,778.584778 803.138794,778.182739   C803.325684,778.110901 803.635010,778.271851 804.053589,778.677979  z"></path><path fill="#EA1013" stroke="none" d=" M734.272217,796.266479   C734.667969,796.155945 734.793396,796.393921 734.585938,796.839722   C734.388184,796.799683 734.304382,796.655518 734.272217,796.266479  z"></path><path fill="#EA1013" stroke="none" d=" M734.522949,799.235352   C734.638428,799.092468 734.946655,799.444519 734.968323,799.562012   C734.692932,799.777649 734.498779,799.677185 734.522949,799.235352  z"></path><path fill="#EB0E11" stroke="none" d=" M125.281395,703.300903   C125.566849,703.354553 125.872017,703.452209 126.177185,703.549927   C126.024002,703.614014 125.870827,703.678162 125.498077,703.590454   C125.278496,703.438538 125.301109,703.344910 125.281395,703.300903  z"></path><path fill="#FEFDFD" stroke="none" d=" M485.155396,311.179321   C490.036804,307.125610 494.620087,303.267365 499.208130,299.414764   C502.757050,296.434662 506.081390,296.259125 509.863800,299.413727   C536.575623,321.692047 563.396667,343.839417 590.142273,366.077332   C592.305847,367.876251 594.425903,369.842743 596.116394,372.072449   C600.141541,377.381500 599.581360,383.474426 594.982056,387.829620   C590.505920,392.068146 585.743347,392.219330 580.284973,387.712799   C569.762573,379.025299 559.428101,370.110229 548.997803,361.310730   C547.731262,360.242218 546.428955,359.180267 545.013794,358.330902   C541.722839,356.355835 538.206116,355.766571 535.565430,359.077301   C532.688538,362.684143 534.365906,366.091553 537.409302,368.669434   C543.120728,373.507324 549.053589,378.082764 554.842529,382.830475   C559.601562,386.733521 564.533447,390.471863 568.944336,394.742249   C575.458679,401.049042 573.062683,410.431305 564.645325,412.711395   C560.239807,413.904785 556.877563,411.765259 553.775452,409.151611   C544.482422,401.321899 535.259094,393.409515 526.010010,385.527618   C524.236450,384.016235 522.502441,382.456512 520.693359,380.989105   C516.123413,377.282288 511.949219,377.182739 509.311554,380.665070   C506.741699,384.057800 507.996307,388.074890 512.421021,391.775177   C522.250366,399.995361 532.017517,408.291290 541.726013,416.653809   C544.576721,419.109314 546.914429,422.123444 545.765747,426.215698   C544.583557,430.427063 541.388733,433.295410 537.242981,433.574310   C534.421753,433.764130 530.971191,432.557465 528.655090,430.830994   C521.192566,425.268158 514.339172,418.882751 506.828796,413.391785   C502.024872,409.879547 496.475647,407.386688 489.917175,403.677002   C488.928833,394.858826 482.895111,388.013092 472.403900,384.882812   C471.292969,384.551361 470.200317,382.647797 469.912262,381.299866   C466.609833,365.845062 455.787506,358.852661 440.539093,362.855133   C436.668182,363.871216 434.397430,363.422272 431.923065,359.950165   C425.630096,351.119537 414.364502,348.864532 404.318573,353.896881   C401.951691,355.082520 399.695953,356.490173 397.863342,357.527313   C383.066650,347.354401 368.419373,337.321259 353.848663,327.178131   C352.937927,326.544098 352.150513,325.067444 352.106476,323.951233   C351.009796,296.152740 355.842560,269.737640 370.696747,245.720215   C371.036133,245.171478 371.463043,244.676865 372.316803,243.527267   C379.920166,247.483490 387.390472,251.704376 395.141388,255.324463   C406.509857,260.634155 417.792267,266.396973 429.667389,270.255249   C437.127777,272.679077 445.605927,271.970337 453.635345,272.667664   C445.878662,279.651703 437.939056,286.616821 430.209015,293.807159   C420.639954,302.708160 420.635010,308.442657 429.847931,317.626526   C439.056244,326.805908 452.757690,329.269623 465.861542,323.123749   C472.557648,319.983246 478.549316,315.340790 485.155396,311.179321  z"></path><path fill="#FEFEFE" stroke="none" d=" M468.021698,253.061615   C459.731415,256.386383 451.454834,259.798370 442.221375,258.966125   C439.422272,258.713806 436.635956,258.319916 433.109192,257.831970   C427.318085,255.680695 422.109375,254.001495 417.235901,251.632614   C406.101532,246.220474 395.131165,240.470825 384.094208,234.858276   C384.094208,234.858276 384.043671,234.966705 383.911896,234.631500   C382.396576,233.442215 381.013031,232.588135 379.478119,231.640625   C380.215118,230.538757 380.840759,229.603394 381.466431,228.668030   C381.466431,228.668030 381.558105,228.541046 381.849670,228.290924   C383.466736,226.388245 384.792297,224.735718 386.117859,223.083191   C386.117859,223.083191 386.029999,223.045990 386.296692,222.989441   C386.740875,222.632874 386.918304,222.332870 387.095764,222.032867   C387.669281,221.525757 388.242767,221.018646 389.194702,220.079254   C392.427246,216.448502 395.281281,213.250000 398.135315,210.051514   C398.703705,209.568100 399.272064,209.084686 400.174561,208.239502   C400.697083,207.593185 400.885498,207.308624 401.073914,207.024078   C401.425568,207.019745 401.697296,206.870193 402.224243,206.260193   C402.759369,205.648819 402.959381,205.352692 403.159393,205.056564   C403.488953,205.050247 403.752686,204.915283 404.332642,204.302597   C407.179260,201.994064 409.643890,200.034637 412.108490,198.075195   C412.108490,198.075195 412.030487,198.012634 412.353760,197.988159   C413.480469,197.328217 414.283936,196.692764 415.087372,196.057312   C415.087372,196.057297 415.020569,196.002167 415.346375,195.976151   C416.499237,195.322403 417.326233,194.694656 418.153259,194.066925   C419.037872,193.630203 419.922485,193.193512 421.281952,192.409668   C423.633575,190.942581 425.510406,189.822632 427.387207,188.702682   C427.387207,188.702682 427.550476,188.607834 427.923309,188.396057   C428.748627,187.975479 429.214203,187.790863 429.651733,187.554413   C463.095215,169.480530 498.412476,164.112137 535.636902,172.082947   C552.767883,175.751190 568.735107,182.481720 583.945618,191.084885   C583.945618,191.084885 583.978943,191.000519 584.118774,191.316467   C586.172363,192.755081 588.086121,193.877747 589.999878,195.000397   C589.999878,195.000397 590.000000,195.000000 590.197144,195.269089   C593.561401,197.742416 596.728516,199.946640 599.895630,202.150879   C599.895630,202.150879 599.954895,202.040924 600.047119,202.370438   C601.709656,203.866272 603.279907,205.032593 604.850220,206.198914   C604.850220,206.198914 604.887573,206.101547 604.937134,206.369080   C605.298096,206.808319 605.609375,206.980026 605.920715,207.151749   C605.920715,207.151749 605.932129,207.064163 605.990356,207.324097   C606.354370,207.756836 606.660156,207.929611 606.965881,208.102402   C607.011780,208.450699 607.187134,208.712067 607.862244,209.251404   C610.172913,211.368408 612.113403,213.120514 614.053894,214.872620   C614.053894,214.872620 614.045776,214.957535 614.199097,215.324585   C614.173096,216.414505 613.993774,217.137375 613.814392,217.860260   C613.814392,217.860260 613.912537,217.899490 613.644043,217.954590   C613.219543,218.328674 613.063538,218.647629 612.907532,218.966583   C612.274475,219.633499 611.641357,220.300400 610.629028,221.405731   C608.771790,223.538742 607.293823,225.233322 605.815918,226.927917   C605.247925,227.372681 604.679932,227.817429 603.708374,228.647369   C602.380005,229.969086 601.455322,230.905609 600.530640,231.842163   C599.758667,232.366013 598.986633,232.889847 597.788635,233.766602   C596.239929,235.077850 595.117310,236.036209 593.994629,236.994553   C593.994629,236.994553 594.000000,237.000000 593.731567,237.036224   C593.249207,237.346954 593.035339,237.621429 592.821411,237.895905   C592.821411,237.895889 592.914612,237.927551 592.599487,237.962463   C591.493530,238.645660 590.702637,239.293945 589.911804,239.942215   C589.911804,239.942215 589.976624,239.998520 589.653931,240.025146   C588.192322,240.954971 587.053406,241.858170 585.914490,242.761368   C584.479248,243.434494 583.043945,244.107605 580.882324,244.919586   C572.770508,245.412048 565.384949,245.765640 557.999451,246.119232   C556.932068,246.044495 555.864746,245.969742 554.053467,245.794495   C551.539429,245.507385 549.769226,245.320770 547.999084,245.134171   C547.552917,245.068634 547.106812,245.003113 545.964722,244.837326   C538.719543,243.857239 532.170227,242.977417 525.620911,242.097580   C525.404846,242.039566 525.188721,241.981537 524.316589,241.801788   C503.608582,238.113068 485.449799,243.801285 468.021698,253.061615  z"></path><path fill="#FEFDFD" stroke="none" d=" M615.812134,362.829468   C626.871887,351.310486 638.276489,340.737488 651.145264,331.870331   C651.683716,332.066406 652.222168,332.262512 652.760559,332.458618   C650.660767,342.552429 649.125427,352.804199 646.353455,362.709900   C638.564697,390.543610 622.255676,413.503265 603.594971,434.959381   C581.774170,460.048920 556.323425,481.384583 531.987122,503.874176   C521.972900,513.128479 512.225464,522.671509 501.916168,532.503357   C489.266052,520.493591 476.852692,508.465820 464.175140,496.723267   C437.644531,472.149353 411.261444,447.416595 388.636230,419.083710   C372.981995,399.480408 360.378967,378.142181 354.627991,353.350861   C353.883301,350.140808 353.458649,346.856476 352.681488,342.447723   C357.714325,345.772003 361.946045,348.471191 366.076080,351.317841   C372.095520,355.466858 377.980377,359.813232 384.042999,363.896729   C387.553467,366.261230 388.574738,368.610168 386.740509,372.917755   C383.849091,379.708221 383.810760,386.830780 387.563263,393.549805   C391.258270,400.165802 396.880341,403.762573 404.512634,404.026215   C406.667542,404.100677 408.546112,403.726074 409.162140,406.973572   C411.168854,417.552032 418.234528,422.871216 428.608856,423.670715   C432.064240,423.936981 433.295776,425.325378 434.438965,428.301758   C438.049805,437.702667 444.571259,441.778503 454.760162,442.155457   C456.670441,442.226166 459.200043,443.459625 460.286713,444.982330   C467.333557,454.856354 475.063965,457.850128 486.577454,454.823242   C487.824280,454.495453 489.773315,454.392151 490.554352,455.106140   C502.099335,465.659760 518.975220,459.139618 526.926331,449.672241   C529.336304,446.802582 531.787292,446.052307 535.427185,446.116852   C548.407532,446.346954 558.741943,437.969330 560.342834,426.227753   C574.523438,425.887268 582.539368,418.232819 585.270142,404.122437   C593.366760,404.024994 600.511169,401.616455 605.757935,394.939209   C610.062744,389.460785 612.892090,383.146973 611.364319,376.481445   C610.016846,370.602203 611.230286,366.638885 615.812134,362.829468  z"></path><path fill="#FDFAFA" stroke="none" d=" M448.106567,396.102295   C443.443512,400.627350 439.131897,405.020721 434.522247,409.075226   C431.652802,411.599121 428.212860,413.043457 424.610168,410.206085   C421.078308,407.424561 419.688385,403.544312 421.629211,399.575775   C426.366547,389.888947 433.129944,381.634583 442.372406,376.017426   C444.897339,374.482910 449.195374,374.672333 452.275909,375.526581   C456.844604,376.793518 458.524323,381.964661 455.992218,386.078613   C453.840118,389.575226 450.915100,392.596100 448.106567,396.102295  z"></path><path fill="#FDFAFA" stroke="none" d=" M474.147583,411.983276   C469.700317,416.963531 465.620148,421.797974 461.161865,426.254059   C456.637909,430.775696 452.396606,431.271606 448.846863,428.299683   C444.965179,425.049835 443.909515,419.486877 447.419647,414.928070   C451.754517,409.298096 456.674194,404.038116 461.855530,399.165131   C466.135223,395.140106 471.410980,395.315002 474.889008,398.603607   C478.127899,401.666199 477.953125,405.894440 474.147583,411.983276  z"></path><path fill="#FDFAFA" stroke="none" d=" M417.375305,383.378448   C415.473206,385.498291 414.116943,387.894318 412.062439,389.064026   C409.391663,390.584595 405.224152,392.766663 403.398193,391.715546   C400.605438,390.107788 398.379242,386.213989 397.495453,382.872009   C395.825043,376.555573 407.315765,362.549805 416.186279,363.836395   C423.039917,364.830444 426.452576,371.045319 422.561249,376.862122   C421.088654,379.063324 419.270966,381.033722 417.375305,383.378448  z"></path><path fill="#FCF8F8" stroke="none" d=" M482.797272,421.693298   C484.959930,420.437561 486.861816,418.596497 488.743683,418.616760   C491.293335,418.644196 494.452301,419.465332 496.161011,421.151031   C497.415161,422.388306 497.781921,426.257843 496.768860,427.744781   C493.339783,432.777893 489.496185,437.668610 485.087585,441.851288   C481.371094,445.377350 475.842377,444.577057 473.003998,441.179810   C470.200958,437.824829 470.629303,434.269592 474.492554,430.130188   C477.101654,427.334564 479.844574,424.663849 482.797272,421.693298  z"></path><path fill="#EA1013" stroke="none" d=" M583.955139,190.711533   C568.735107,182.481720 552.767883,175.751190 535.636902,172.082947   C498.412476,164.112137 463.095215,169.480530 429.651733,187.554413   C429.214203,187.790863 428.748627,187.975479 428.000092,188.341156   C429.778870,186.667511 431.564117,184.160431 433.979858,183.126602   C443.183350,179.187866 452.546783,175.606674 461.942535,172.141556   C465.679108,170.763535 469.613251,169.815750 473.532501,169.062790   C479.685333,167.880722 485.902252,166.215240 492.091217,166.218628   C502.898041,166.224548 513.746582,166.955765 524.496277,168.129028   C531.960571,168.943710 539.307861,170.920975 546.665894,172.564941   C549.016907,173.090240 551.274048,174.120209 553.506470,175.077240   C562.646606,178.995651 571.791260,182.907425 580.849365,187.008987   C582.128113,187.588013 582.937866,189.202805 583.955139,190.711533  z"></path><path fill="#FCF8F8" stroke="none" d=" M505.780792,437.813934   C507.289307,436.030853 508.543549,434.496399 509.312256,433.556000   C510.679932,433.556000 511.169708,433.429932 511.270477,433.574677   C513.125732,436.239716 519.737000,436.027679 516.882690,441.385010   C513.668640,447.417450 505.117676,449.265198 499.167023,445.206390   C501.329926,442.776764 503.428253,440.419678 505.780792,437.813934  z"></path><path fill="#EA1013" stroke="none" d=" M468.235687,253.299713   C485.449799,243.801285 503.608582,238.113068 523.983765,241.845490   C522.144714,242.546951 519.506714,244.140625 517.908875,243.421921   C512.997620,241.212845 508.574493,241.673981 503.706146,243.380539   C500.554291,244.485397 496.847473,243.970551 493.654694,245.002472   C486.429291,247.337753 479.378204,250.208939 472.230591,252.791306   C471.036285,253.222809 469.713226,253.298004 468.235687,253.299713  z"></path><path fill="#EA1013" stroke="none" d=" M384.073181,235.235687   C395.131165,240.470825 406.101532,246.220474 417.235901,251.632614   C422.109375,254.001495 427.318085,255.680695 432.678345,257.865540   C431.479431,258.035645 429.864899,258.367950 428.491791,257.934814   C417.516541,254.472534 407.104095,249.774490 397.265900,243.746918   C394.088257,241.800064 390.388763,240.722733 387.090576,238.945847   C385.841736,238.273056 385.051453,236.749100 384.073181,235.235687  z"></path><path fill="#EA1013" stroke="none" d=" M558.076782,246.484436   C565.384949,245.765640 572.770508,245.412048 580.578674,245.077576   C580.883728,247.424408 580.998596,249.153168 577.360535,247.965286   C574.811096,247.132812 571.605347,248.390640 568.684326,248.595062   C565.049622,248.849411 561.165466,250.419373 558.076782,246.484436  z"></path><path fill="#EA1013" stroke="none" d=" M525.464233,242.508423   C532.170227,242.977417 538.719543,243.857239 545.629272,244.889862   C545.362488,245.673904 544.673950,246.901947 544.117432,246.844727   C538.058899,246.221832 532.017822,245.420410 525.987183,244.560562   C525.688721,244.518021 525.530945,243.488968 525.464233,242.508423  z"></path><path fill="#EA1013" stroke="none" d=" M397.757843,210.040955   C395.281281,213.250000 392.427246,216.448502 389.278320,219.798676   C390.297852,215.387039 392.620636,211.677322 397.757843,210.040955  z"></path><path fill="#EA1013" stroke="none" d=" M599.919800,201.775696   C596.728516,199.946640 593.561401,197.742416 590.196960,195.269196   C594.388855,195.464264 598.224243,196.788925 599.919800,201.775696  z"></path><path fill="#EA1013" stroke="none" d=" M381.136566,228.514175   C380.840759,229.603394 380.215118,230.538757 379.478119,231.640625   C381.013031,232.588135 382.396576,233.442215 383.960144,234.596130   C381.762939,234.046051 379.385712,233.196106 377.008514,232.346161   C377.038177,231.812332 377.067871,231.278488 377.097565,230.744659   C378.333923,229.949875 379.570312,229.155106 381.136566,228.514175  z"></path><path fill="#EA1013" stroke="none" d=" M548.014587,245.518707   C549.769226,245.320770 551.539429,245.507385 553.654785,245.847061   C551.960144,249.040955 549.966187,249.255386 548.014587,245.518707  z"></path><path fill="#EA1013" stroke="none" d=" M411.729645,198.056946   C409.643890,200.034637 407.179260,201.994064 404.398621,204.083618   C404.767853,200.110352 407.689545,198.639282 411.729645,198.056946  z"></path><path fill="#EA1013" stroke="none" d=" M614.031372,214.499771   C612.113403,213.120514 610.172913,211.368408 608.096802,209.315674   C611.880737,208.466827 613.551636,210.578949 614.031372,214.499771  z"></path><path fill="#EA1013" stroke="none" d=" M589.992493,194.607056   C588.086121,193.877747 586.172363,192.755081 584.085327,191.347092   C586.397522,191.223831 589.635437,189.936249 589.992493,194.607056  z"></path><path fill="#EA1013" stroke="none" d=" M427.007721,188.504883   C425.510406,189.822632 423.633575,190.942581 421.421997,192.144867   C420.885895,188.025223 423.961426,188.455032 427.007721,188.504883  z"></path><path fill="#EA1013" stroke="none" d=" M604.892090,205.778137   C603.279907,205.032593 601.709656,203.866272 599.995117,202.405029   C602.206421,202.157562 605.362793,200.951355 604.892090,205.778137  z"></path><path fill="#EA1013" stroke="none" d=" M606.212341,226.943497   C607.293823,225.233322 608.771790,223.538742 610.544312,221.673553   C611.228088,224.716614 610.063354,226.725494 606.212341,226.943497  z"></path><path fill="#EA1013" stroke="none" d=" M385.739899,223.065094   C384.792297,224.735718 383.466736,226.388245 381.907990,228.238693   C382.903839,226.640060 384.132874,224.843536 385.739899,223.065094  z"></path><path fill="#EA1013" stroke="none" d=" M585.952698,243.062088   C587.053406,241.858170 588.192322,240.954971 589.640869,239.984238   C588.630615,241.065414 587.310791,242.214111 585.952698,243.062088  z"></path><path fill="#EA1013" stroke="none" d=" M594.387939,236.995682   C595.117310,236.036209 596.239929,235.077850 597.668945,234.026138   C596.910645,234.954117 595.846008,235.975464 594.387939,236.995682  z"></path><path fill="#EA1013" stroke="none" d=" M614.139038,217.879303   C613.993774,217.137375 614.173096,216.414505 614.241394,215.318817   C614.880310,215.406250 615.630310,215.866486 616.380310,216.326736   C615.741455,216.850616 615.102539,217.374481 614.139038,217.879303  z"></path><path fill="#EA1013" stroke="none" d=" M600.917603,231.860901   C601.455322,230.905609 602.380005,229.969086 603.609253,228.904663   C603.044006,229.811066 602.174255,230.845367 600.917603,231.860901  z"></path><path fill="#EA1013" stroke="none" d=" M417.835571,193.938019   C417.326233,194.694656 416.499237,195.322403 415.361389,196.016785   C415.872986,195.325333 416.695435,194.567215 417.835571,193.938019  z"></path><path fill="#EA1013" stroke="none" d=" M590.282227,239.953461   C590.702637,239.293945 591.493530,238.645660 592.585266,237.915329   C592.141663,238.543747 591.397156,239.254227 590.282227,239.953461  z"></path><path fill="#EA1013" stroke="none" d=" M414.720642,196.045837   C414.283936,196.692764 413.480469,197.328217 412.371246,198.035004   C412.828278,197.415680 413.591064,196.725037 414.720642,196.045837  z"></path><path fill="#EA1013" stroke="none" d=" M593.073730,237.830566   C593.035339,237.621429 593.249207,237.346954 593.729004,237.033356   C593.771973,237.251266 593.548950,237.508255 593.073730,237.830566  z"></path><path fill="#EA1013" stroke="none" d=" M400.837646,207.127274   C400.885498,207.308624 400.697083,207.593185 400.263916,207.969070   C400.213196,207.783752 400.407288,207.507111 400.837646,207.127274  z"></path><path fill="#EA1013" stroke="none" d=" M402.906128,205.153198   C402.959381,205.352692 402.759369,205.648819 402.300293,206.031723   C402.245087,205.828934 402.448975,205.539368 402.906128,205.153198  z"></path><path fill="#EA1013" stroke="none" d=" M605.820557,206.896973   C605.609375,206.980026 605.298096,206.808319 604.886841,206.382843   C605.098145,206.300110 605.409241,206.471146 605.820557,206.896973  z"></path><path fill="#EA1013" stroke="none" d=" M606.855957,207.858780   C606.660156,207.929611 606.354370,207.756836 605.947144,207.333038   C606.145691,207.259735 606.445862,207.437454 606.855957,207.858780  z"></path><path fill="#EA1013" stroke="none" d=" M613.150269,218.849579   C613.063538,218.647629 613.219543,218.328674 613.627686,217.904327   C613.717468,218.110168 613.555237,218.421371 613.150269,218.849579  z"></path><path fill="#EA1013" stroke="none" d=" M386.853668,222.140930   C386.918304,222.332870 386.740875,222.632874 386.315125,223.033447   C386.248413,222.839020 386.429993,222.544006 386.853668,222.140930  z"></path><path fill="#FEFCFC" stroke="none" d=" M621.135254,776.473022   C607.712219,778.873169 600.219910,776.423279 595.312439,767.559814   C590.439514,758.758728 590.607727,749.600830 596.059448,741.140198   C601.174866,733.201477 609.236450,731.260681 617.978271,733.129578   C621.495239,733.881470 625.023865,735.971375 627.851807,738.297668   C637.125732,745.926453 637.847900,771.375488 621.135254,776.473022  z"></path><path fill="#FDFBFB" stroke="none" d=" M254.309692,780.467773   C249.916321,781.799500 245.862015,783.544922 241.701889,783.850708   C235.727036,784.289856 231.739807,780.848145 230.879013,775.800964   C229.909363,770.115479 232.108826,765.925781 238.199158,764.003235   C242.363373,762.688660 246.909836,762.460144 251.314133,762.072083   C254.597778,761.782776 257.927368,762.015076 261.536438,762.015076   C262.942108,769.643738 261.056000,775.780518 254.309692,780.467773  z"></path><path fill="#FDFBFB" stroke="none" d=" M528.213806,733.814209   C530.262268,738.052612 532.056641,742.019958 534.175476,746.704651   C520.333191,746.704651 507.812439,746.704651 494.939941,746.704651   C496.066284,739.321411 499.026123,733.140015 506.142731,730.346252   C513.797119,727.341248 521.399170,727.639526 528.213806,733.814209  z"></path><path fill="#FDFBFB" stroke="none" d=" M814.000977,746.978882   C807.860474,746.979248 802.219482,746.979248 796.573730,746.979248   C796.889709,735.853210 804.760437,728.623840 816.277222,728.663635   C826.879333,728.700256 833.621277,735.570251 833.880005,746.978455   C827.418274,746.978455 820.959351,746.978455 814.000977,746.978882  z"></path><path fill="#E9080A" stroke="none" d=" M842.605713,777.045654   C842.209351,777.287476 841.815063,777.285706 841.422974,777.255371   C841.411865,777.254517 841.424377,776.948792 841.425842,776.785278   C841.819885,776.789551 842.213989,776.793823 842.605713,777.045654  z"></path><path fill="#EA1013" stroke="none" d=" M897.533691,715.391602   C897.649841,714.941467 897.933289,714.665405 898.234802,714.410828   C898.242554,714.404297 898.447876,714.631714 898.560974,714.750061   C898.275146,715.022949 897.989319,715.295837 897.533691,715.391602  z"></path><path fill="#EC0F12" stroke="none" d=" M455.016602,792.762756   C454.915955,794.671692 454.814667,796.113037 454.715790,797.519714   C447.802307,797.519714 441.320007,797.519714 433.998901,797.519714   C433.998901,795.908142 433.998932,794.347534 433.998932,792.786926   C433.998901,756.314514 433.995667,719.842163 434.001801,683.369751   C434.002869,677.017944 434.021027,677.015564 440.442505,677.000793   C443.440247,676.993896 446.464600,677.250610 449.429352,676.937439   C453.705719,676.485718 455.228638,677.800903 455.129486,682.380798   C454.823181,696.530090 455.016144,710.690308 455.015961,724.846252   C455.015686,747.329224 455.015930,769.812195 455.016602,792.762756  z"></path><path fill="#EB0F12" stroke="none" d=" M899.449829,740.532410   C899.416748,740.476990 899.482910,740.587830 899.449829,740.532410  z"></path><path fill="#EB0F12" stroke="none" d=" M188.532516,685.550293   C188.476974,685.583435 188.588058,685.517212 188.532516,685.550293  z"></path></svg>